<svg width="1321" height="999" viewBox="0 0 1321 999" fill="none" xmlns="http://www.w3.org/2000/svg">
<path d="M902.588 15.1624C1004.79 51.3624 1064.49 154.162 1069.79 283.062C1075.89 430.662 1050.29 582.362 981.488 711.662C913.688 839.162 804.288 948.962 670.288 984.762C605.188 1002.16 256.988 1028.46 128.488 887.762C26.8876 776.162 -21.9124 592.662 9.38764 444.662C42.4876 288.562 148.788 220.762 269.788 187.562C331.688 170.562 394.888 179.862 454.788 153.162C511.688 127.762 559.888 88.2624 613.788 56.8624C697.988 7.96236 800.388 -16.3376 893.288 12.1624C896.488 13.0624 899.588 14.0624 902.588 15.1624Z" fill="#302F4D"/>
<path d="M106.688 147.762H942.588C948.488 147.762 953.288 152.562 953.288 158.462V829.662C953.288 835.562 948.488 840.362 942.588 840.362H106.688C100.788 840.362 95.9876 835.562 95.9876 829.662V158.362C95.9876 152.462 100.788 147.762 106.688 147.762Z" fill="#F0D3F7"/>
<path d="M953.288 208.362H95.9876V158.462C95.9876 152.562 100.788 147.762 106.688 147.762H942.588C948.488 147.762 953.288 152.562 953.288 158.462V208.362Z" fill="#F0D3F7"/>
<path d="M142.588 192.162C149.933 192.162 155.888 185.85 155.888 178.062C155.888 170.275 149.933 163.962 142.588 163.962C135.242 163.962 129.288 170.275 129.288 178.062C129.288 185.85 135.242 192.162 142.588 192.162Z" fill="#F23B2D"/>
<path d="M158.388 177.362C157.388 157.062 126.588 159.362 126.688 178.762C126.888 199.262 157.488 196.462 158.388 177.362C158.488 176.262 153.288 176.962 153.188 178.762C152.788 186.262 146.288 194.162 138.188 189.262C134.088 186.762 131.788 182.062 131.788 177.362C131.788 170.162 138.088 162.862 145.688 166.362C150.588 168.562 152.888 173.562 153.188 178.762C153.288 179.962 158.488 179.062 158.388 177.362Z" fill="#5D7183"/>
<path d="M182.388 192.162C189.733 192.162 195.688 185.85 195.688 178.062C195.688 170.275 189.733 163.962 182.388 163.962C175.042 163.962 169.088 170.275 169.088 178.062C169.088 185.85 175.042 192.162 182.388 192.162Z" fill="#E458EC"/>
<path d="M198.188 177.362C197.188 156.962 166.588 158.862 166.488 178.562C166.488 199.162 197.188 197.262 198.188 177.762C198.288 175.562 193.088 176.462 192.988 178.362C192.688 184.662 188.488 191.962 180.988 190.362C175.188 189.162 171.688 183.162 171.688 177.662C171.688 170.862 177.188 163.762 184.688 166.262C190.088 168.062 192.688 173.462 192.988 178.862C193.088 180.462 198.288 179.462 198.188 177.362Z" fill="#5D7183"/>
<path d="M222.088 192.162C229.433 192.162 235.388 185.85 235.388 178.062C235.388 170.275 229.433 163.962 222.088 163.962C214.742 163.962 208.788 170.275 208.788 178.062C208.788 185.85 214.742 192.162 222.088 192.162Z" fill="#05D498"/>
<path d="M237.988 177.362C236.988 157.062 206.188 159.462 206.288 178.762C206.388 199.262 236.988 196.362 237.988 177.362C238.088 176.262 232.888 177.062 232.788 178.762C232.388 186.262 225.888 194.162 217.788 189.262C213.688 186.762 211.388 182.062 211.388 177.362C211.388 170.162 217.688 162.862 225.288 166.362C230.188 168.562 232.488 173.562 232.788 178.762C232.888 179.962 237.988 178.962 237.988 177.362Z" fill="#5D7183"/>
<path d="M706.488 737.462H844.688C856.688 737.462 866.388 727.762 866.388 715.762V485.462C866.388 473.462 856.688 463.762 844.688 463.762H706.488C694.488 463.762 684.788 473.462 684.788 485.462V715.762C684.888 727.762 694.588 737.462 706.488 737.462Z" fill="#F0D3F7"/>
<path d="M724.388 680.362H826.888C831.988 680.362 836.188 684.562 836.188 689.662V692.962C836.188 698.062 831.988 702.262 826.888 702.262H724.388C719.288 702.262 715.088 698.062 715.088 692.962V689.662C715.088 684.462 719.288 680.362 724.388 680.362Z" fill="#F0D3F7"/>
<path d="M724.088 490.662H827.188C832.188 490.662 836.188 494.662 836.188 499.662V634.962C836.188 639.962 832.188 643.962 827.188 643.962H724.088C719.088 643.962 715.088 639.962 715.088 634.962V499.662C715.088 494.662 719.088 490.662 724.088 490.662Z" fill="#F0D3F7"/>
<path d="M204.488 737.462H342.688C354.688 737.462 364.388 727.762 364.388 715.762V485.462C364.388 473.462 354.688 463.762 342.688 463.762H204.488C192.488 463.762 182.788 473.462 182.788 485.462V715.762C182.888 727.762 192.588 737.462 204.488 737.462Z" fill="#F0D3F7"/>
<path d="M222.388 680.362H324.888C329.988 680.362 334.188 684.562 334.188 689.662V692.962C334.188 698.062 329.988 702.262 324.888 702.262H222.388C217.288 702.262 213.088 698.062 213.088 692.962V689.662C213.088 684.462 217.288 680.362 222.388 680.362Z" fill="#F0D3F7"/>
<path d="M222.088 490.662H325.188C330.188 490.662 334.188 494.662 334.188 499.662V634.962C334.188 639.962 330.188 643.962 325.188 643.962H222.088C217.088 643.962 213.088 639.962 213.088 634.962V499.662C213.088 494.662 217.088 490.662 222.088 490.662Z" fill="#F0D3F7"/>
<path d="M455.488 737.462H593.688C605.688 737.462 615.388 727.762 615.388 715.762V485.462C615.388 473.462 605.688 463.762 593.688 463.762H455.488C443.488 463.762 433.788 473.462 433.788 485.462V715.762C433.888 727.762 443.588 737.462 455.488 737.462Z" fill="#F0D3F7"/>
<path d="M473.388 680.362H575.888C580.988 680.362 585.188 684.562 585.188 689.662V692.962C585.188 698.062 580.988 702.262 575.888 702.262H473.388C468.288 702.262 464.088 698.062 464.088 692.962V689.662C464.088 684.462 468.288 680.362 473.388 680.362Z" fill="#F0D3F7"/>
<path d="M473.088 490.662H576.188C581.188 490.662 585.188 494.662 585.188 499.662V634.962C585.188 639.962 581.188 643.962 576.188 643.962H473.088C468.088 643.962 464.088 639.962 464.088 634.962V499.662C464.088 494.662 468.088 490.662 473.088 490.662Z" fill="#F0D3F7"/>
<path d="M950.688 732.662C950.688 762.862 950.688 793.162 950.688 823.362C950.688 828.262 951.788 837.462 945.688 839.262C942.488 840.162 937.588 839.262 934.288 839.262C915.688 839.262 896.988 839.262 878.388 839.262C864.388 839.262 850.388 839.262 836.388 839.262C835.288 839.262 830.488 841.462 833.088 841.462C865.488 841.462 897.888 841.462 930.388 841.462C941.088 841.462 955.788 843.062 956.088 827.962C956.388 811.862 956.088 795.762 956.088 779.662C956.088 763.562 956.088 747.462 956.088 731.362C955.888 730.362 950.688 731.062 950.688 732.662Z" fill="#E458EC"/>
<path d="M633.888 839.262C609.888 839.262 585.888 839.262 561.888 839.262C507.788 839.262 453.788 839.262 399.688 839.262C341.488 839.262 283.188 839.262 224.988 839.262C188.488 839.262 151.988 839.262 115.488 839.262C107.088 839.262 98.7876 839.862 98.5876 827.862C98.4876 820.062 98.5876 812.362 98.5876 804.562C98.5876 765.562 98.5876 726.462 98.5876 687.462C98.5876 630.362 98.5876 573.362 98.5876 516.262C98.5876 457.162 98.5876 398.162 98.5876 339.062C98.5876 293.762 98.5876 248.562 98.5876 203.262C98.5876 191.162 98.5876 178.962 98.5876 166.862C98.5876 161.462 97.1876 150.262 104.088 148.862C109.388 147.762 116.088 148.862 121.488 148.862C134.588 148.862 147.688 148.862 160.788 148.862C203.788 148.862 246.788 148.862 289.788 148.862C346.788 148.862 403.688 148.862 460.688 148.862C521.188 148.862 581.688 148.862 642.188 148.862C695.688 148.862 749.288 148.862 802.788 148.862C839.288 148.862 875.788 148.862 912.288 148.862C920.988 148.862 929.688 148.862 938.288 148.862C939.588 148.862 940.988 148.762 942.288 148.862C949.388 149.562 950.588 156.262 950.588 162.062C950.588 197.162 950.588 232.262 950.588 267.362C950.588 326.262 950.588 385.062 950.588 443.962C950.588 490.262 950.588 536.662 950.588 582.962C950.588 590.062 950.588 597.262 950.588 604.362C950.588 605.262 955.788 604.562 955.788 602.962C955.788 575.262 955.788 547.462 955.788 519.762C955.788 461.562 955.788 403.462 955.788 345.262C955.788 294.462 955.788 243.662 955.788 192.962C955.788 181.762 955.888 170.562 955.788 159.362C955.688 152.862 952.588 147.162 945.588 146.762C944.088 146.662 942.588 146.762 941.088 146.762C916.288 146.762 891.388 146.762 866.588 146.762C819.388 146.762 772.288 146.762 725.088 146.762C665.988 146.762 606.788 146.762 547.688 146.762C487.688 146.762 427.588 146.762 367.588 146.762C316.488 146.762 265.488 146.762 214.388 146.762C183.388 146.762 152.288 146.762 121.288 146.762C116.488 146.762 111.688 146.562 106.888 146.762C99.0876 147.062 93.5876 151.962 93.3876 159.962C93.2876 162.362 93.3876 164.862 93.3876 167.262C93.3876 199.062 93.3876 230.862 93.3876 262.662C93.3876 316.862 93.3876 371.062 93.3876 425.262C93.3876 486.062 93.3876 546.762 93.3876 607.562C93.3876 658.062 93.3876 708.462 93.3876 758.962C93.3876 782.462 92.8876 806.062 93.3876 829.562C93.5876 841.562 102.788 841.462 111.388 841.462C125.188 841.462 139.088 841.462 152.888 841.462C203.688 841.462 254.388 841.462 305.188 841.462C365.188 841.462 425.288 841.462 485.288 841.462C527.588 841.462 569.888 841.462 612.188 841.462C618.288 841.462 624.388 841.462 630.588 841.462C631.688 841.362 636.388 839.262 633.888 839.262Z" fill="#E458EC"/>
<path d="M754.888 839.262C737.088 839.262 719.288 839.262 701.388 839.262C700.288 839.262 695.488 841.462 698.088 841.462C715.888 841.462 733.688 841.462 751.588 841.462C752.688 841.362 757.388 839.262 754.888 839.262Z" fill="#E458EC"/>
<path d="M838.088 360.662H207.488C192.288 360.662 179.888 348.262 179.888 333.062V287.262C179.888 272.062 192.288 259.662 207.488 259.662H838.188C853.388 259.662 865.788 272.062 865.788 287.262V333.062C865.688 348.162 853.288 360.662 838.088 360.662Z" stroke="#E458EC" stroke-width="3" stroke-miterlimit="10"/>
<path d="M244.088 303.062H237.788V298.262C237.788 291.662 232.388 286.262 225.788 286.262C219.188 286.262 213.788 291.662 213.788 298.262V303.062H207.488V298.262C207.488 288.262 215.688 280.062 225.688 280.062C235.688 280.062 243.888 288.262 243.888 298.262V303.062H244.088Z" fill="#04D498"/>
<path d="M229.688 338.162H221.988C212.688 338.162 205.188 330.662 205.188 321.362V304.662C205.188 303.662 205.988 302.962 206.888 302.962H244.588C245.588 302.962 246.288 303.762 246.288 304.662V321.362C246.488 330.662 238.988 338.162 229.688 338.162Z" fill="#04D498"/>
<path d="M223.988 327.562L214.388 318.462L218.488 314.562L223.988 319.762L235.188 309.362L239.288 313.262L223.988 327.562Z" fill="#F0D3F7"/>
<path d="M285.777 326.744V283.762L291.037 282.857V297.901C292.017 297.524 293.054 297.241 294.147 297.052C295.278 296.826 296.39 296.713 297.484 296.713C299.821 296.713 301.763 297.052 303.309 297.731C304.855 298.372 306.08 299.296 306.985 300.502C307.928 301.671 308.587 303.085 308.964 304.744C309.341 306.403 309.53 308.231 309.53 310.23V326.744H304.27V311.361C304.27 309.551 304.138 308.005 303.875 306.723C303.648 305.441 303.252 304.404 302.687 303.613C302.121 302.821 301.367 302.255 300.425 301.916C299.482 301.539 298.313 301.35 296.918 301.35C296.353 301.35 295.768 301.388 295.165 301.464C294.562 301.539 293.977 301.633 293.412 301.746C292.884 301.822 292.394 301.916 291.941 302.029C291.527 302.142 291.225 302.237 291.037 302.312V326.744H285.777ZM323.006 297.335H334.148V301.746H323.006V315.32C323.006 316.79 323.119 318.015 323.346 318.996C323.572 319.938 323.911 320.692 324.364 321.258C324.816 321.786 325.382 322.163 326.06 322.389C326.739 322.615 327.531 322.728 328.436 322.728C330.019 322.728 331.282 322.559 332.225 322.219C333.205 321.842 333.884 321.578 334.261 321.427L335.279 325.782C334.751 326.046 333.827 326.367 332.508 326.744C331.188 327.158 329.68 327.366 327.983 327.366C325.985 327.366 324.326 327.121 323.006 326.63C321.724 326.103 320.688 325.33 319.896 324.312C319.104 323.294 318.539 322.05 318.199 320.579C317.898 319.071 317.747 317.337 317.747 315.376V289.135L323.006 288.23V297.335ZM345.761 297.335H356.902V301.746H345.761V315.32C345.761 316.79 345.874 318.015 346.1 318.996C346.326 319.938 346.666 320.692 347.118 321.258C347.571 321.786 348.136 322.163 348.815 322.389C349.493 322.615 350.285 322.728 351.19 322.728C352.774 322.728 354.037 322.559 354.979 322.219C355.959 321.842 356.638 321.578 357.015 321.427L358.033 325.782C357.505 326.046 356.582 326.367 355.262 326.744C353.942 327.158 352.434 327.366 350.738 327.366C348.739 327.366 347.08 327.121 345.761 326.63C344.479 326.103 343.442 325.33 342.65 324.312C341.858 323.294 341.293 322.05 340.954 320.579C340.652 319.071 340.501 317.337 340.501 315.376V289.135L345.761 288.23V297.335ZM384.011 312.096C384.011 308.665 383.163 306.026 381.466 304.178C379.77 302.331 377.507 301.407 374.68 301.407C373.096 301.407 371.852 301.464 370.947 301.577C370.08 301.69 369.382 301.822 368.855 301.973V320.523C369.495 321.05 370.419 321.559 371.626 322.05C372.832 322.54 374.152 322.785 375.585 322.785C377.093 322.785 378.375 322.521 379.43 321.993C380.524 321.427 381.41 320.673 382.088 319.731C382.767 318.75 383.257 317.619 383.559 316.337C383.86 315.018 384.011 313.604 384.011 312.096ZM389.497 312.096C389.497 314.32 389.195 316.375 388.592 318.26C388.027 320.146 387.178 321.767 386.047 323.124C384.916 324.481 383.521 325.537 381.862 326.291C380.241 327.045 378.375 327.422 376.263 327.422C374.567 327.422 373.058 327.196 371.739 326.744C370.457 326.291 369.495 325.858 368.855 325.443V337.206H363.595V298.24C364.839 297.938 366.385 297.618 368.232 297.279C370.118 296.902 372.286 296.713 374.736 296.713C376.998 296.713 379.034 297.071 380.844 297.788C382.654 298.504 384.2 299.522 385.482 300.842C386.764 302.161 387.744 303.782 388.422 305.705C389.139 307.59 389.497 309.721 389.497 312.096ZM403.741 322.954C405.89 322.954 407.474 322.672 408.492 322.106C409.548 321.541 410.075 320.636 410.075 319.391C410.075 318.11 409.566 317.092 408.548 316.337C407.53 315.583 405.853 314.735 403.515 313.793C402.384 313.34 401.291 312.888 400.235 312.435C399.217 311.945 398.331 311.38 397.577 310.739C396.823 310.098 396.219 309.325 395.767 308.42C395.315 307.515 395.088 306.403 395.088 305.083C395.088 302.482 396.05 300.427 397.973 298.919C399.896 297.373 402.516 296.6 405.834 296.6C406.663 296.6 407.493 296.656 408.322 296.77C409.152 296.845 409.925 296.958 410.641 297.109C411.357 297.222 411.979 297.354 412.507 297.505C413.073 297.656 413.506 297.788 413.808 297.901L412.847 302.425C412.281 302.123 411.395 301.822 410.189 301.52C408.982 301.181 407.53 301.011 405.834 301.011C404.363 301.011 403.081 301.313 401.988 301.916C400.895 302.482 400.348 303.386 400.348 304.631C400.348 305.272 400.461 305.837 400.687 306.327C400.951 306.817 401.328 307.27 401.818 307.685C402.346 308.062 402.987 308.42 403.741 308.759C404.495 309.098 405.4 309.457 406.456 309.834C407.851 310.362 409.095 310.889 410.189 311.417C411.282 311.907 412.206 312.492 412.96 313.17C413.751 313.849 414.355 314.679 414.769 315.659C415.184 316.601 415.392 317.77 415.392 319.165C415.392 321.88 414.374 323.935 412.338 325.33C410.339 326.725 407.474 327.422 403.741 327.422C401.14 327.422 399.104 327.196 397.633 326.744C396.163 326.329 395.164 326.008 394.636 325.782L395.597 321.258C396.201 321.484 397.162 321.823 398.482 322.276C399.801 322.728 401.554 322.954 403.741 322.954ZM428.359 323.69C428.359 324.708 428.02 325.594 427.341 326.348C426.662 327.102 425.739 327.479 424.57 327.479C423.401 327.479 422.477 327.102 421.799 326.348C421.12 325.594 420.781 324.708 420.781 323.69C420.781 322.672 421.12 321.786 421.799 321.032C422.477 320.277 423.401 319.9 424.57 319.9C425.739 319.9 426.662 320.277 427.341 321.032C428.02 321.786 428.359 322.672 428.359 323.69ZM428.359 301.124C428.359 302.142 428.02 303.028 427.341 303.782C426.662 304.536 425.739 304.913 424.57 304.913C423.401 304.913 422.477 304.536 421.799 303.782C421.12 303.028 420.781 302.142 420.781 301.124C420.781 300.106 421.12 299.22 421.799 298.466C422.477 297.712 423.401 297.335 424.57 297.335C425.739 297.335 426.662 297.712 427.341 298.466C428.02 299.22 428.359 300.106 428.359 301.124ZM435.547 337.206H430.174L449.346 282.461H454.606L435.547 337.206ZM457.252 337.206H451.879L471.051 282.461H476.311L457.252 337.206ZM498.468 303.556C497.827 303.028 496.903 302.519 495.697 302.029C494.49 301.539 493.171 301.294 491.738 301.294C490.23 301.294 488.929 301.577 487.836 302.142C486.78 302.67 485.913 303.424 485.234 304.404C484.556 305.347 484.066 306.478 483.764 307.798C483.462 309.117 483.312 310.531 483.312 312.039C483.312 315.47 484.16 318.128 485.856 320.014C487.553 321.861 489.815 322.785 492.643 322.785C494.076 322.785 495.263 322.728 496.206 322.615C497.186 322.464 497.94 322.313 498.468 322.163V303.556ZM498.468 283.762L503.728 282.857V325.895C502.521 326.235 500.975 326.574 499.09 326.913C497.205 327.253 495.037 327.422 492.586 327.422C490.324 327.422 488.288 327.064 486.479 326.348C484.669 325.631 483.123 324.613 481.841 323.294C480.559 321.974 479.56 320.372 478.844 318.487C478.165 316.564 477.826 314.415 477.826 312.039C477.826 309.777 478.108 307.703 478.674 305.818C479.277 303.933 480.144 302.312 481.276 300.955C482.407 299.597 483.783 298.542 485.404 297.788C487.063 297.033 488.948 296.656 491.06 296.656C492.756 296.656 494.245 296.883 495.527 297.335C496.847 297.788 497.827 298.221 498.468 298.636V283.762ZM511.129 312.096C511.129 309.494 511.506 307.232 512.26 305.309C513.014 303.349 514.013 301.728 515.257 300.446C516.502 299.164 517.934 298.202 519.556 297.561C521.177 296.92 522.836 296.6 524.532 296.6C528.491 296.6 531.526 297.844 533.638 300.333C535.749 302.783 536.805 306.535 536.805 311.587C536.805 311.813 536.805 312.115 536.805 312.492C536.805 312.831 536.786 313.152 536.748 313.453H516.615C516.841 316.507 517.727 318.826 519.273 320.409C520.819 321.993 523.232 322.785 526.512 322.785C528.359 322.785 529.905 322.634 531.149 322.332C532.431 321.993 533.393 321.672 534.034 321.371L534.769 325.782C534.128 326.121 532.997 326.48 531.376 326.857C529.792 327.234 527.982 327.422 525.946 327.422C523.382 327.422 521.158 327.045 519.273 326.291C517.425 325.499 515.898 324.425 514.692 323.068C513.485 321.71 512.58 320.108 511.977 318.26C511.412 316.375 511.129 314.32 511.129 312.096ZM531.319 309.212C531.357 306.836 530.753 304.895 529.509 303.386C528.303 301.841 526.625 301.068 524.476 301.068C523.269 301.068 522.195 301.313 521.252 301.803C520.347 302.255 519.574 302.859 518.933 303.613C518.293 304.367 517.784 305.234 517.406 306.214C517.067 307.194 516.841 308.194 516.728 309.212H531.319ZM553.183 327.309C549.94 327.234 547.64 326.536 546.283 325.217C544.926 323.897 544.247 321.842 544.247 319.052V283.762L549.507 282.857V318.204C549.507 319.071 549.582 319.787 549.733 320.353C549.884 320.918 550.129 321.371 550.468 321.71C550.807 322.05 551.26 322.313 551.825 322.502C552.391 322.653 553.088 322.785 553.918 322.898L553.183 327.309ZM565.084 326.744H559.824V297.335H565.084V326.744ZM562.426 292.019C561.483 292.019 560.673 291.717 559.994 291.114C559.353 290.473 559.033 289.625 559.033 288.569C559.033 287.513 559.353 286.684 559.994 286.081C560.673 285.44 561.483 285.119 562.426 285.119C563.368 285.119 564.16 285.44 564.801 286.081C565.48 286.684 565.819 287.513 565.819 288.569C565.819 289.625 565.48 290.473 564.801 291.114C564.16 291.717 563.368 292.019 562.426 292.019ZM597.09 297.335C595.619 302.84 593.885 308.118 591.887 313.17C589.926 318.223 588.022 322.747 586.175 326.744H581.424C579.577 322.747 577.654 318.223 575.656 313.17C573.695 308.118 571.98 302.84 570.509 297.335H576.165C576.617 299.183 577.145 301.162 577.748 303.273C578.389 305.347 579.049 307.421 579.728 309.494C580.444 311.53 581.16 313.51 581.877 315.433C582.593 317.355 583.272 319.071 583.913 320.579C584.554 319.071 585.232 317.355 585.949 315.433C586.665 313.51 587.362 311.53 588.041 309.494C588.757 307.421 589.417 305.347 590.021 303.273C590.661 301.162 591.208 299.183 591.661 297.335H597.09ZM600.103 312.096C600.103 309.494 600.48 307.232 601.234 305.309C601.988 303.349 602.987 301.728 604.232 300.446C605.476 299.164 606.909 298.202 608.53 297.561C610.151 296.92 611.81 296.6 613.507 296.6C617.465 296.6 620.501 297.844 622.612 300.333C624.723 302.783 625.779 306.535 625.779 311.587C625.779 311.813 625.779 312.115 625.779 312.492C625.779 312.831 625.76 313.152 625.722 313.453H605.589C605.815 316.507 606.701 318.826 608.247 320.409C609.793 321.993 612.206 322.785 615.486 322.785C617.333 322.785 618.879 322.634 620.124 322.332C621.405 321.993 622.367 321.672 623.008 321.371L623.743 325.782C623.102 326.121 621.971 326.48 620.35 326.857C618.766 327.234 616.956 327.422 614.92 327.422C612.357 327.422 610.132 327.045 608.247 326.291C606.4 325.499 604.873 324.425 603.666 323.068C602.46 321.71 601.555 320.108 600.951 318.26C600.386 316.375 600.103 314.32 600.103 312.096ZM620.293 309.212C620.331 306.836 619.728 304.895 618.483 303.386C617.277 301.841 615.599 301.068 613.45 301.068C612.244 301.068 611.169 301.313 610.226 301.803C609.322 302.255 608.549 302.859 607.908 303.613C607.267 304.367 606.758 305.234 606.381 306.214C606.041 307.194 605.815 308.194 605.702 309.212H620.293ZM639.555 323.69C639.555 324.708 639.216 325.594 638.537 326.348C637.859 327.102 636.935 327.479 635.766 327.479C634.597 327.479 633.674 327.102 632.995 326.348C632.316 325.594 631.977 324.708 631.977 323.69C631.977 322.672 632.316 321.786 632.995 321.032C633.674 320.277 634.597 319.9 635.766 319.9C636.935 319.9 637.859 320.277 638.537 321.032C639.216 321.786 639.555 322.672 639.555 323.69ZM658.111 296.713C658.563 296.713 659.072 296.751 659.638 296.826C660.241 296.864 660.825 296.939 661.391 297.052C661.956 297.128 662.465 297.222 662.918 297.335C663.408 297.411 663.766 297.486 663.992 297.561L663.087 302.142C662.673 301.991 661.975 301.822 660.995 301.633C660.052 301.407 658.827 301.294 657.319 301.294C656.339 301.294 655.358 301.407 654.378 301.633C653.435 301.822 652.813 301.954 652.512 302.029V326.744H647.252V298.579C648.496 298.127 650.042 297.712 651.89 297.335C653.737 296.92 655.811 296.713 658.111 296.713ZM666.833 332.229C667.248 332.418 667.775 332.588 668.416 332.738C669.095 332.927 669.755 333.021 670.396 333.021C672.469 333.021 674.091 332.55 675.259 331.607C676.428 330.702 677.484 329.213 678.427 327.139C676.051 322.615 673.827 317.827 671.753 312.775C669.717 307.685 668.02 302.538 666.663 297.335H672.319C672.733 299.032 673.224 300.86 673.789 302.821C674.392 304.781 675.052 306.799 675.768 308.872C676.485 310.946 677.258 313.02 678.087 315.093C678.917 317.167 679.784 319.165 680.689 321.088C682.121 317.129 683.366 313.208 684.421 309.325C685.477 305.441 686.476 301.445 687.419 297.335H692.848C691.491 302.877 689.983 308.212 688.324 313.34C686.665 318.43 684.874 323.199 682.951 327.648C682.197 329.345 681.405 330.797 680.576 332.003C679.784 333.247 678.898 334.265 677.918 335.057C676.937 335.849 675.825 336.433 674.581 336.81C673.374 337.187 671.998 337.376 670.452 337.376C670.038 337.376 669.604 337.338 669.152 337.263C668.699 337.225 668.247 337.15 667.794 337.037C667.38 336.961 666.984 336.867 666.607 336.754C666.267 336.641 666.022 336.546 665.871 336.471L666.833 332.229ZM697.885 337.206H692.513L711.685 282.461H716.944L697.885 337.206ZM731.58 282.857C733.126 282.857 734.445 282.97 735.539 283.196C736.67 283.423 737.462 283.63 737.914 283.819L736.953 288.343C736.5 288.117 735.859 287.909 735.03 287.721C734.2 287.495 733.182 287.381 731.976 287.381C729.525 287.381 727.81 288.06 726.829 289.417C725.849 290.737 725.359 292.528 725.359 294.79V297.335H736.67V301.746H725.359V326.744H720.099V294.677C720.099 290.907 721.023 288.004 722.871 285.968C724.718 283.894 727.621 282.857 731.58 282.857ZM767.874 312.039C767.874 314.377 767.534 316.488 766.856 318.373C766.177 320.259 765.215 321.88 763.971 323.237C762.765 324.594 761.313 325.65 759.617 326.404C757.92 327.121 756.072 327.479 754.074 327.479C752.076 327.479 750.228 327.121 748.532 326.404C746.835 325.65 745.365 324.594 744.121 323.237C742.914 321.88 741.971 320.259 741.293 318.373C740.614 316.488 740.275 314.377 740.275 312.039C740.275 309.739 740.614 307.647 741.293 305.762C741.971 303.839 742.914 302.199 744.121 300.842C745.365 299.484 746.835 298.447 748.532 297.731C750.228 296.977 752.076 296.6 754.074 296.6C756.072 296.6 757.92 296.977 759.617 297.731C761.313 298.447 762.765 299.484 763.971 300.842C765.215 302.199 766.177 303.839 766.856 305.762C767.534 307.647 767.874 309.739 767.874 312.039ZM762.388 312.039C762.388 308.721 761.634 306.101 760.126 304.178C758.655 302.218 756.638 301.237 754.074 301.237C751.51 301.237 749.474 302.218 747.966 304.178C746.496 306.101 745.761 308.721 745.761 312.039C745.761 315.357 746.496 317.996 747.966 319.957C749.474 321.88 751.51 322.841 754.074 322.841C756.638 322.841 758.655 321.88 760.126 319.957C761.634 317.996 762.388 315.357 762.388 312.039ZM801.232 312.039C801.232 314.377 800.893 316.488 800.214 318.373C799.535 320.259 798.574 321.88 797.33 323.237C796.123 324.594 794.672 325.65 792.975 326.404C791.278 327.121 789.431 327.479 787.433 327.479C785.434 327.479 783.587 327.121 781.89 326.404C780.194 325.65 778.723 324.594 777.479 323.237C776.273 321.88 775.33 320.259 774.651 318.373C773.973 316.488 773.633 314.377 773.633 312.039C773.633 309.739 773.973 307.647 774.651 305.762C775.33 303.839 776.273 302.199 777.479 300.842C778.723 299.484 780.194 298.447 781.89 297.731C783.587 296.977 785.434 296.6 787.433 296.6C789.431 296.6 791.278 296.977 792.975 297.731C794.672 298.447 796.123 299.484 797.33 300.842C798.574 302.199 799.535 303.839 800.214 305.762C800.893 307.647 801.232 309.739 801.232 312.039ZM795.746 312.039C795.746 308.721 794.992 306.101 793.484 304.178C792.014 302.218 789.996 301.237 787.433 301.237C784.869 301.237 782.833 302.218 781.325 304.178C779.854 306.101 779.119 308.721 779.119 312.039C779.119 315.357 779.854 317.996 781.325 319.957C782.833 321.88 784.869 322.841 787.433 322.841C789.996 322.841 792.014 321.88 793.484 319.957C794.992 317.996 795.746 315.357 795.746 312.039ZM827.634 303.556C826.993 303.028 826.069 302.519 824.863 302.029C823.656 301.539 822.337 301.294 820.904 301.294C819.396 301.294 818.095 301.577 817.002 302.142C815.946 302.67 815.079 303.424 814.4 304.404C813.722 305.347 813.232 306.478 812.93 307.798C812.628 309.117 812.478 310.531 812.478 312.039C812.478 315.47 813.326 318.128 815.022 320.014C816.719 321.861 818.981 322.785 821.809 322.785C823.242 322.785 824.429 322.728 825.372 322.615C826.352 322.464 827.106 322.313 827.634 322.163V303.556ZM827.634 283.762L832.894 282.857V325.895C831.687 326.235 830.141 326.574 828.256 326.913C826.371 327.253 824.203 327.422 821.752 327.422C819.49 327.422 817.454 327.064 815.645 326.348C813.835 325.631 812.289 324.613 811.007 323.294C809.725 321.974 808.726 320.372 808.01 318.487C807.331 316.564 806.992 314.415 806.992 312.039C806.992 309.777 807.274 307.703 807.84 305.818C808.443 303.933 809.31 302.312 810.442 300.955C811.573 299.597 812.949 298.542 814.57 297.788C816.229 297.033 818.114 296.656 820.226 296.656C821.922 296.656 823.411 296.883 824.693 297.335C826.013 297.788 826.993 298.221 827.634 298.636V283.762Z" fill="#302F4D"/>
<path d="M265.388 274.062H264.588V346.562H265.388V274.062Z" fill="#ADADAD"/>
<path d="M600.388 901.762C601.688 903.562 615.188 908.362 621.088 908.662C631.788 911.062 649.188 908.662 651.688 908.862C667.688 910.262 687.088 909.662 703.288 910.062C726.188 910.762 815.488 907.562 835.088 902.562C850.988 898.562 808.488 887.062 803.088 886.462C744.188 880.562 681.088 879.662 621.588 882.262C621.288 882.262 620.988 882.362 620.788 882.362C611.488 883.062 597.588 897.762 600.388 901.762Z" fill="#F0D3F7"/>
<path d="M642.888 897.062C649.788 900.662 652.288 891.462 655.588 887.062C660.488 880.462 666.588 867.162 669.788 859.662C690.988 810.262 715.888 763.462 737.088 714.162C737.588 712.962 738.088 711.662 737.888 710.362C737.488 707.862 734.688 706.562 732.188 705.862C702.888 697.162 671.388 701.862 641.088 698.362C637.288 697.962 633.488 697.362 629.688 697.962C625.888 698.562 622.388 689.462 620.788 692.862C618.788 697.262 631.888 847.162 637.188 877.962C637.888 882.262 638.188 893.562 641.788 896.362C642.188 896.662 642.588 896.862 642.888 897.062Z" fill="#F0D3F7"/>
<path d="M619.388 718.062C620.988 759.062 625.388 800.062 629.788 840.862C630.788 849.762 631.788 858.662 632.988 867.562C633.988 875.262 634.588 883.462 636.388 890.962C637.388 895.162 639.188 898.762 643.888 899.462C647.588 899.962 650.788 898.062 652.988 895.262C655.888 891.562 658.388 886.962 660.888 882.862C664.388 877.062 667.288 870.862 670.088 864.762C684.288 833.262 699.088 802.162 713.988 770.962C715.188 768.462 709.988 768.862 709.088 770.562C696.388 796.962 683.388 823.262 671.488 850.062C666.388 861.362 661.888 873.162 655.288 883.762C654.088 885.762 652.588 887.562 651.488 889.662C650.588 891.262 649.588 893.762 648.188 894.962C642.288 900.162 640.888 885.662 640.488 882.562C638.788 867.762 636.488 853.162 634.888 838.362C632.588 817.162 630.588 795.862 628.688 774.662C626.988 755.462 625.288 736.162 624.588 716.862C624.488 714.662 619.288 715.862 619.388 718.062Z" fill="#5D7183"/>
<path d="M690.188 726.062C691.788 741.662 704.988 759.562 711.588 770.762C739.888 818.762 776.388 871.562 827.288 897.862C838.788 903.862 840.688 890.562 834.988 881.862C827.988 871.162 820.788 860.662 814.888 849.162C805.988 831.862 800.688 812.462 799.188 792.662C797.588 772.062 796.088 714.462 795.288 694.062C795.088 688.962 737.788 700.862 717.288 701.062C711.088 701.062 704.588 701.362 699.488 705.062C691.688 710.562 689.388 718.062 690.188 726.062Z" fill="#F0D3F7"/>
<path d="M689.888 736.462C694.788 750.162 703.488 762.062 710.888 774.462C718.188 786.762 725.688 798.862 733.788 810.562C750.488 834.962 769.388 858.162 792.288 877.062C802.488 885.462 814.188 894.662 826.588 899.662C834.088 902.762 841.288 898.462 840.688 890.062C840.288 883.962 836.488 879.262 833.288 874.362C828.488 866.962 823.588 859.562 819.388 851.762C811.688 837.562 806.388 822.062 803.588 806.062C801.388 793.462 801.088 780.662 800.488 767.962C799.788 753.662 799.288 739.362 798.788 725.062C798.688 723.462 793.588 724.462 793.588 726.462C794.288 747.862 794.988 769.262 796.388 790.662C798.388 819.662 808.588 845.562 824.188 869.862C827.688 875.262 832.488 880.662 834.488 886.762C835.288 889.062 835.788 891.662 835.288 894.062C834.588 897.762 832.588 897.862 829.288 896.362C816.888 890.762 805.388 881.862 795.088 873.262C774.588 855.962 757.288 835.162 741.988 813.362C733.588 801.362 725.788 789.062 718.188 776.562C710.088 763.062 700.488 749.862 695.088 734.962C694.388 733.262 689.288 734.762 689.888 736.462Z" fill="#5D7183"/>
<path d="M615.288 693.962C611.588 650.962 614.088 613.362 621.588 570.862C625.688 547.562 634.388 524.462 641.288 501.762C649.788 473.962 650.588 444.762 660.188 416.862C662.888 408.962 665.988 401.062 671.388 394.662C679.288 385.362 690.888 382.562 702.588 384.862C710.188 386.362 716.388 392.162 720.188 398.862C727.088 411.062 729.488 424.962 730.888 438.662C731.588 445.462 743.088 487.962 746.188 493.762C760.388 520.362 768.688 530.962 777.588 559.862C791.288 604.262 800.488 651.462 799.588 697.562C799.488 702.862 771.888 716.562 691.588 710.562C654.788 707.862 615.288 693.962 615.288 693.962Z" fill="#F0D3F7"/>
<path d="M777.488 559.962C768.588 531.162 759.488 518.762 745.388 492.262C725.288 504.962 706.388 506.862 691.188 506.762C679.788 506.762 659.788 499.762 654.988 497.362C651.188 495.362 647.788 492.762 644.288 490.362C643.388 494.162 642.388 497.962 641.188 501.762C634.288 524.462 625.588 547.562 621.488 570.862C613.888 613.362 611.488 650.962 615.188 693.962C615.188 693.962 654.688 704.562 691.488 707.362C771.788 713.362 799.388 703.062 799.488 697.662C800.388 651.562 791.188 604.362 777.488 559.962Z" fill="#F0D3F7"/>
<path d="M752.688 419.762C750.588 431.762 737.088 440.362 725.388 437.162C713.688 433.962 706.388 419.662 710.688 408.362C707.188 413.562 700.688 416.562 694.488 416.062C688.188 415.562 682.388 411.562 679.688 405.862C676.888 414.062 668.088 419.862 659.488 419.162C650.788 418.462 643.088 411.262 641.688 402.762C640.288 394.162 645.388 384.962 653.388 381.562C645.488 380.562 639.388 372.562 639.588 364.562C639.788 356.562 645.788 349.362 653.288 346.562C660.788 343.862 669.488 345.362 676.188 349.762C675.388 340.962 682.488 332.062 691.288 331.062C700.088 329.962 709.088 336.862 710.388 345.662C716.088 339.362 726.388 337.862 733.588 342.362C740.788 346.762 744.188 356.562 741.288 364.562C750.188 362.962 759.788 369.662 761.288 378.562C762.788 387.462 756.088 397.062 747.088 398.462C753.588 404.262 754.988 411.462 752.688 419.762Z" fill="#E5ABF2"/>
<path d="M619.888 598.462C622.288 579.962 625.488 561.662 630.588 543.662C635.788 525.662 642.588 508.162 646.988 489.962C651.288 472.062 653.388 453.662 657.388 435.762C660.988 419.962 665.788 396.562 681.688 388.462C689.388 384.462 700.088 384.462 707.588 388.962C715.088 393.562 719.388 401.962 722.288 409.962C726.588 421.862 726.788 434.262 729.588 446.462C733.688 464.362 737.688 483.762 746.488 500.062C763.588 531.762 779.588 563.962 785.588 599.862C785.888 601.562 791.088 600.362 790.788 598.462C785.088 564.062 770.188 532.862 753.788 502.462C743.988 484.262 739.088 463.862 734.588 443.862C731.388 429.562 731.188 415.162 724.588 401.662C717.888 387.962 705.988 381.062 690.688 383.062C675.088 385.162 665.688 396.562 660.088 410.462C652.788 428.662 649.788 448.262 646.488 467.462C642.688 489.462 636.088 510.262 629.388 531.462C622.388 553.662 617.788 576.062 614.788 599.162C614.488 601.062 619.588 600.162 619.888 598.462Z" fill="#5D7183"/>
<path d="M648.988 496.162C676.688 512.162 711.688 512.562 739.888 497.562C742.988 495.862 740.188 493.562 737.688 494.862C711.288 508.962 678.888 508.262 652.988 493.362C651.188 492.362 646.588 494.862 648.988 496.162Z" fill="#5D7183"/>
<path d="M645.688 516.962C647.388 520.062 650.288 524.962 653.788 526.262C657.288 527.562 662.188 523.862 665.288 522.562C668.488 521.062 665.688 518.262 662.988 519.462C661.588 520.062 660.188 520.762 658.788 521.362C658.088 521.662 657.388 522.062 656.688 522.362C656.388 522.562 655.988 522.662 655.688 522.862C656.488 522.662 656.488 522.362 655.788 521.962C655.188 520.862 653.688 519.762 652.888 518.662C651.988 517.462 651.188 516.062 650.388 514.762C649.288 512.662 644.388 514.562 645.688 516.962Z" fill="#E5ABF2"/>
<path d="M642.988 531.862C644.888 533.762 646.788 535.962 648.788 537.762C649.988 538.762 650.488 539.062 652.088 538.862C656.188 538.262 660.188 535.662 663.788 533.662C664.788 533.062 664.188 532.862 663.488 532.662C662.488 532.362 660.688 533.162 659.888 533.662C657.988 534.762 655.288 536.662 653.088 537.162C653.688 537.162 654.388 537.162 654.988 537.162C652.388 535.962 649.888 532.362 647.888 530.262C646.988 529.262 642.288 531.162 642.988 531.862Z" fill="#E5ABF2"/>
<path d="M639.588 546.262C641.988 547.762 644.288 549.162 646.688 550.662C648.088 551.562 649.388 552.362 651.088 552.262C654.688 552.162 658.088 548.862 660.888 546.962C663.788 545.062 659.388 544.062 657.588 545.262C656.288 546.162 654.888 547.062 653.588 547.862C653.288 548.062 652.888 548.262 652.588 548.562C651.588 549.462 651.288 549.462 651.888 548.762C650.888 548.562 649.188 547.062 648.388 546.562C646.788 545.562 645.288 544.662 643.688 543.662C642.088 542.662 637.388 544.862 639.588 546.262Z" fill="#E5ABF2"/>
<path d="M635.488 561.162C637.688 562.962 639.888 564.862 642.088 566.662C643.388 567.762 644.588 569.162 646.388 569.262C648.088 569.362 649.988 568.262 651.388 567.362C654.088 565.762 656.788 564.062 659.388 562.362C662.288 560.562 657.688 560.362 656.288 561.262C653.288 563.162 649.788 566.062 646.488 567.162C647.588 567.162 648.688 567.062 649.888 567.062C646.388 565.162 643.388 561.862 640.288 559.262C639.088 558.262 634.388 560.262 635.488 561.162Z" fill="#E5ABF2"/>
<path d="M632.788 575.462C636.188 577.362 639.588 579.362 642.988 581.162C644.688 582.062 645.588 582.662 647.388 582.462C652.688 581.762 658.288 576.462 662.588 573.662C664.688 572.362 659.588 573.062 658.688 573.562C654.788 575.962 650.588 579.462 646.388 581.162C647.688 580.962 648.988 580.762 650.288 580.562C645.888 579.062 641.688 575.862 637.588 573.562C636.388 573.062 632.288 575.162 632.788 575.462Z" fill="#E5ABF2"/>
<path d="M634.788 590.462C636.888 592.162 638.888 593.762 640.988 595.462C642.388 596.562 643.788 597.962 645.588 597.962C647.188 597.962 648.388 596.962 649.588 596.062C651.488 594.662 653.388 593.162 655.388 591.762C658.188 589.662 654.088 587.562 651.888 589.162C650.588 590.162 649.288 591.062 648.088 592.062C647.488 592.562 646.788 593.062 646.188 593.462C645.088 594.362 644.988 594.462 645.588 593.662C646.288 593.062 646.088 592.662 644.988 592.262C644.288 591.662 643.588 591.162 642.888 590.562C641.488 589.462 640.088 588.362 638.788 587.262C636.788 585.762 632.388 588.462 634.788 590.462Z" fill="#E5ABF2"/>
<path d="M633.388 607.462C636.788 609.062 640.888 612.062 644.888 611.462C649.088 610.862 653.488 608.062 657.388 606.362C660.588 604.962 657.788 602.262 655.088 603.362C652.188 604.562 648.988 606.662 645.888 607.362C642.888 607.962 638.988 605.262 636.288 603.962C634.288 603.062 630.388 606.062 633.388 607.462Z" fill="#E5ABF2"/>
<path d="M631.188 621.062C634.688 623.362 639.088 628.062 643.488 626.862C648.088 625.562 652.588 622.162 656.288 619.362C659.088 617.262 654.688 616.562 653.088 617.762C649.888 620.162 646.088 623.262 642.088 624.462C642.888 624.462 643.688 624.462 644.488 624.562C641.188 623.062 638.188 620.562 635.188 618.662C633.888 617.562 629.088 619.662 631.188 621.062Z" fill="#E5ABF2"/>
<path d="M630.188 636.962C634.688 640.062 638.888 645.062 644.688 643.062C649.388 641.362 654.288 637.862 657.488 633.962C657.688 633.662 653.388 633.662 652.388 634.862C650.488 637.162 646.288 641.362 643.288 641.862C643.888 641.862 644.588 641.862 645.188 641.862C641.588 640.262 638.288 637.462 635.088 635.262C633.888 634.462 629.588 636.562 630.188 636.962Z" fill="#E5ABF2"/>
<path d="M627.788 649.762C630.588 651.562 633.488 653.262 636.288 655.062C638.288 656.262 640.388 658.062 642.888 657.962C647.988 657.862 650.088 652.062 652.488 648.462C653.588 646.762 648.588 647.462 647.788 648.662C646.288 650.862 644.388 655.062 642.188 656.562C643.388 656.262 644.588 655.862 645.788 655.562C643.588 655.462 640.488 652.862 638.588 651.662C636.588 650.462 634.488 649.162 632.488 647.862C631.288 647.062 626.788 649.062 627.788 649.762Z" fill="#E5ABF2"/>
<path d="M632.688 663.862C635.788 665.862 640.188 669.962 644.188 669.862C648.188 669.762 652.188 665.962 655.388 663.962C658.288 662.062 654.088 660.362 651.988 661.662C649.988 662.962 646.788 666.062 644.288 665.662C643.088 665.462 641.488 663.862 640.488 663.262C639.188 662.462 637.988 661.662 636.688 660.862C634.788 659.762 630.288 662.362 632.688 663.862Z" fill="#E5ABF2"/>
<path d="M628.488 677.462C631.088 678.662 633.688 679.862 636.288 681.062C638.188 681.962 640.488 683.562 642.688 683.562C646.388 683.562 650.588 679.162 653.488 677.262C656.388 675.262 652.188 673.162 649.988 674.662C647.488 676.362 644.888 678.662 642.088 679.862C642.988 679.762 643.888 679.762 644.688 679.662C640.188 678.362 635.788 675.662 631.488 673.762C629.088 672.762 625.488 676.062 628.488 677.462Z" fill="#E5ABF2"/>
<path d="M631.188 688.662C634.788 690.262 639.688 693.562 643.688 693.062C648.088 692.462 650.988 688.062 653.888 685.162C654.888 684.162 650.088 684.762 649.188 685.562C647.588 687.262 645.088 690.762 642.988 691.862C644.088 691.662 645.088 691.362 646.188 691.162C642.988 691.062 638.888 688.362 635.988 687.062C634.988 686.662 633.588 687.062 632.688 687.362C632.588 687.362 630.488 688.262 631.188 688.662Z" fill="#E5ABF2"/>
<path d="M686.088 522.362C688.688 525.162 692.388 528.962 696.388 529.762C700.388 530.562 704.388 525.662 707.088 523.562C709.788 521.362 705.688 519.562 703.688 521.162C702.288 522.262 700.888 523.362 699.488 524.462C699.188 524.762 698.788 525.062 698.488 525.262C697.488 526.362 697.188 526.462 697.588 525.462C695.088 524.462 692.688 521.962 690.888 520.062C689.188 518.362 684.388 520.462 686.088 522.362Z" fill="#E5ABF2"/>
<path d="M685.188 535.962C687.888 538.262 691.288 542.962 695.188 542.162C699.188 541.362 702.888 538.562 706.188 536.262C708.288 534.862 703.188 535.562 702.288 536.162C700.188 537.562 697.588 539.762 695.188 540.562C696.088 540.562 696.988 540.462 697.788 540.462C694.988 538.862 692.588 536.262 690.088 534.162C688.988 533.362 684.488 535.362 685.188 535.962Z" fill="#E5ABF2"/>
<path d="M682.988 550.662C685.488 551.962 687.888 553.162 690.388 554.462C691.888 555.262 693.388 556.062 695.188 555.862C698.788 555.462 702.088 551.662 704.788 549.562C705.788 548.762 705.088 547.962 704.288 547.562C703.188 547.062 701.488 547.862 700.688 548.562C699.788 549.262 698.788 550.062 697.888 550.762C696.688 551.662 696.388 552.262 695.188 552.162C694.088 552.062 692.488 550.762 691.488 550.262C690.088 549.562 688.588 548.762 687.188 548.062C685.388 547.262 680.688 549.462 682.988 550.662Z" fill="#E5ABF2"/>
<path d="M680.188 565.862C682.588 567.462 684.888 569.162 687.288 570.762C688.788 571.862 690.188 573.162 692.088 573.062C693.688 572.962 695.188 572.062 696.488 571.162C699.288 569.262 701.988 567.062 704.688 565.062C706.888 563.462 701.788 563.762 700.688 564.562C698.088 566.562 694.988 569.662 691.888 570.962C692.888 570.862 693.888 570.762 694.888 570.662C691.388 569.062 688.088 566.062 684.988 563.862C683.688 563.062 679.088 565.062 680.188 565.862Z" fill="#E5ABF2"/>
<path d="M678.688 580.362C682.488 582.062 686.288 584.062 690.188 585.662C691.788 586.262 692.888 586.562 694.488 586.162C699.688 584.862 704.588 579.362 708.688 576.262C709.688 575.562 704.988 575.962 703.988 576.762C700.488 579.462 696.788 583.162 692.788 585.162C693.988 584.962 695.188 584.662 696.388 584.462C692.088 583.362 687.588 580.562 683.488 578.662C682.188 577.962 678.188 580.162 678.688 580.362Z" fill="#E5ABF2"/>
<path d="M681.888 592.262C684.088 593.762 686.288 595.162 688.488 596.662C689.888 597.662 691.488 598.962 693.288 598.962C696.688 598.862 700.288 594.162 702.588 592.162C705.188 589.862 701.188 587.762 699.088 589.562C697.888 590.662 696.688 591.662 695.488 592.762C694.888 593.262 694.288 593.862 693.688 594.362C692.688 595.262 692.488 595.462 693.188 594.762C693.888 594.262 693.588 593.862 692.488 593.662C691.788 593.162 690.988 592.662 690.288 592.162C688.788 591.162 687.388 590.162 685.888 589.262C683.788 587.762 679.388 590.562 681.888 592.262Z" fill="#E5ABF2"/>
<path d="M681.888 612.262C685.388 613.562 689.788 616.162 693.688 615.462C697.788 614.662 702.088 611.362 705.688 609.362C708.788 607.662 705.988 604.962 703.388 606.362C700.588 607.862 697.588 610.062 694.588 611.162C691.588 612.262 687.688 609.962 684.788 608.862C682.688 607.962 678.788 611.062 681.888 612.262Z" fill="#E5ABF2"/>
<path d="M680.888 625.962C684.488 627.962 689.388 632.262 693.788 630.962C698.388 629.562 702.888 625.262 706.388 622.162C708.588 620.162 703.488 620.162 702.288 621.262C699.188 623.962 695.688 627.262 691.788 628.762C692.788 628.662 693.888 628.662 694.888 628.562C691.488 627.362 688.288 625.162 685.088 623.462C683.488 622.562 678.788 624.762 680.888 625.962Z" fill="#E5ABF2"/>
<path d="M681.288 641.762C685.688 644.262 690.688 649.062 695.988 646.962C700.688 645.162 705.488 640.962 708.288 636.862C708.588 636.462 704.088 636.562 703.188 637.762C701.888 639.762 700.288 641.362 698.388 642.862C697.488 643.562 696.488 644.262 695.488 644.962C695.188 645.162 693.288 646.162 694.088 645.962C694.988 645.962 695.888 645.862 696.688 645.862C692.988 644.562 689.488 642.062 686.088 640.062C684.888 639.362 680.788 641.462 681.288 641.762Z" fill="#E5ABF2"/>
<path d="M680.288 654.862C683.288 656.362 686.188 657.862 689.188 659.362C691.488 660.462 693.588 661.962 696.288 661.662C701.088 661.062 702.788 655.062 704.788 651.362C705.388 650.362 700.488 650.762 699.688 652.162C698.488 654.362 696.988 658.662 694.988 660.162C695.988 659.862 697.088 659.462 698.088 659.162C696.188 659.262 693.188 656.962 691.488 656.162C689.188 654.962 686.788 653.762 684.488 652.562C683.188 652.062 678.488 653.962 680.288 654.862Z" fill="#E5ABF2"/>
<path d="M685.988 668.462C689.388 670.162 694.188 674.062 698.188 673.562C701.988 673.162 705.688 669.162 708.588 666.862C711.388 664.762 707.188 663.062 705.188 664.562C704.088 665.362 702.988 666.162 701.988 667.062C701.388 667.562 699.488 669.362 698.788 669.562C696.688 669.962 691.988 666.462 689.988 665.462C688.088 664.462 683.488 667.162 685.988 668.462Z" fill="#E5ABF2"/>
<path d="M682.988 682.362C685.688 683.362 688.388 684.262 691.088 685.262C693.088 685.962 695.488 687.362 697.588 687.362C701.288 687.362 705.188 682.562 707.888 680.362C710.588 678.162 706.488 676.062 704.388 677.762C702.188 679.562 699.288 683.062 696.388 682.462C692.888 681.762 689.188 679.862 685.888 678.662C683.488 677.862 679.888 681.262 682.988 682.362Z" fill="#E5ABF2"/>
<path d="M686.688 693.162C690.588 694.562 695.688 697.262 699.888 696.562C704.288 695.762 706.788 691.062 709.388 687.862C709.988 687.162 707.488 687.462 707.388 687.462C706.388 687.662 705.088 687.962 704.388 688.862C702.688 690.862 700.688 694.362 698.488 695.662C699.688 695.362 700.888 694.962 702.088 694.662C698.888 694.762 694.588 692.562 691.588 691.462C690.588 691.062 689.288 691.462 688.288 691.762C688.088 691.862 685.888 692.962 686.688 693.162Z" fill="#E5ABF2"/>
<path d="M733.688 521.062C736.488 523.562 740.888 527.062 744.788 527.262C748.788 527.362 752.188 522.262 754.688 519.862C755.588 518.962 754.988 517.762 753.988 517.362C752.788 516.762 751.188 517.462 750.388 518.362C749.188 519.562 747.588 520.762 746.588 522.062C745.688 523.262 745.988 523.362 744.788 522.962C742.188 522.162 739.688 519.962 737.688 518.162C735.888 516.562 731.388 519.062 733.688 521.062Z" fill="#E5ABF2"/>
<path d="M733.688 534.462C736.688 536.562 740.588 540.962 744.588 539.862C748.488 538.862 751.988 535.462 755.088 532.962C755.988 532.162 754.288 532.162 753.888 532.162C752.788 532.162 751.288 532.662 750.388 533.362C748.188 535.162 745.588 537.662 742.888 538.762C744.188 538.562 745.488 538.362 746.788 538.162C743.888 536.862 741.188 534.462 738.488 532.662C737.388 531.862 733.088 533.962 733.688 534.462Z" fill="#E5ABF2"/>
<path d="M732.788 549.262C735.388 550.262 737.988 551.262 740.588 552.262C742.188 552.862 743.788 553.562 745.488 553.362C749.088 552.862 752.088 548.762 754.488 546.462C756.688 544.362 751.688 544.162 750.288 545.462C749.388 546.262 748.588 547.162 747.688 547.962C747.088 548.562 746.488 549.062 745.988 549.662C745.588 550.662 745.188 550.762 744.888 550.162C744.188 550.062 742.288 548.862 741.388 548.562C739.888 547.962 738.388 547.362 736.888 546.762C735.788 546.362 734.188 546.462 733.188 547.162C732.688 547.562 731.588 548.762 732.788 549.262Z" fill="#E5ABF2"/>
<path d="M731.588 564.662C734.088 566.062 736.588 567.462 739.088 568.962C740.688 569.862 742.188 571.062 744.088 570.962C745.788 570.862 747.088 569.962 748.388 568.962C751.088 566.862 753.488 564.362 755.988 562.062C758.088 560.162 752.988 560.662 751.988 561.562C749.388 563.962 746.488 567.462 743.388 569.162C744.588 568.962 745.788 568.762 746.988 568.562C743.388 567.362 739.788 564.662 736.488 562.762C734.988 561.962 730.488 564.062 731.588 564.662Z" fill="#E5ABF2"/>
<path d="M731.488 579.162C735.488 580.562 739.388 582.062 743.488 583.262C745.088 583.762 746.288 583.962 747.888 583.562C749.588 583.162 750.788 582.062 752.088 580.962C755.188 578.262 758.188 575.362 761.188 572.562C762.188 571.662 757.488 572.162 756.488 573.062C753.088 576.162 749.588 580.362 745.688 582.862C747.088 582.562 748.388 582.262 749.788 581.962C745.388 581.262 740.588 578.962 736.388 577.462C734.888 576.962 731.088 579.062 731.488 579.162Z" fill="#E5ABF2"/>
<path d="M736.788 596.862C739.688 597.862 742.588 598.862 745.588 599.862C747.488 600.562 749.888 601.762 751.988 601.662C756.288 601.362 760.788 596.062 763.888 593.562C766.688 591.462 762.588 589.362 760.388 590.962C758.488 592.462 756.588 593.862 754.688 595.362C754.188 595.762 753.788 596.062 753.288 596.462C752.588 597.762 751.688 597.862 750.788 596.962C747.188 596.562 743.088 594.262 739.688 593.162C737.288 592.362 733.588 595.762 736.788 596.862Z" fill="#E5ABF2"/>
<path d="M737.988 624.362C741.688 625.962 747.088 629.862 751.288 628.362C755.788 626.762 759.888 621.862 763.088 618.462C765.188 616.262 760.188 616.262 758.988 617.562C756.188 620.462 752.988 624.362 749.288 626.162C750.188 626.062 750.988 625.962 751.888 625.862C748.588 625.062 745.288 623.162 742.088 621.862C740.488 621.162 735.788 623.462 737.988 624.362Z" fill="#E5ABF2"/>
<path d="M739.888 640.162C744.388 642.162 749.988 646.462 754.988 644.262C759.588 642.262 763.988 637.462 766.388 633.162C766.688 632.562 761.988 632.862 761.288 634.062C760.188 636.162 758.788 637.962 756.988 639.562C755.788 640.662 753.888 642.862 752.388 643.462C753.388 643.362 754.388 643.162 755.388 643.062C751.688 642.162 748.088 639.962 744.588 638.462C743.388 637.762 739.488 639.962 739.888 640.162Z" fill="#E5ABF2"/>
<path d="M740.088 653.362C743.188 654.562 746.288 655.862 749.388 656.962C751.688 657.862 753.988 659.062 756.488 658.662C761.588 657.962 762.488 651.962 764.288 647.862C764.788 646.662 759.788 647.162 759.188 648.662C758.088 651.162 756.988 655.562 754.988 657.462C755.888 657.062 756.888 656.662 757.788 656.162C756.288 656.362 752.988 654.362 751.588 653.862C749.188 652.962 746.688 651.962 744.288 650.962C742.988 650.562 738.288 652.562 740.088 653.362Z" fill="#E5ABF2"/>
<path d="M747.488 666.462C751.088 667.962 756.288 671.262 760.388 670.262C764.088 669.262 767.288 664.962 769.888 662.562C770.788 661.662 770.188 660.562 769.288 660.162C768.088 659.662 766.488 660.362 765.688 661.162C763.988 662.762 761.388 666.362 758.888 666.462C757.788 666.462 755.788 665.262 754.788 664.862C753.388 664.362 752.088 663.762 750.688 663.262C748.388 662.262 744.488 665.262 747.488 666.462Z" fill="#E5ABF2"/>
<path d="M745.888 680.562C748.688 681.262 751.388 681.962 754.188 682.662C756.188 683.162 758.788 684.362 760.988 683.962C764.588 683.262 767.888 678.262 770.388 675.862C772.688 673.562 767.788 672.462 765.988 674.162C763.788 676.362 761.588 679.062 759.088 680.762C759.988 680.562 760.788 680.262 761.688 680.062C756.988 679.662 752.188 677.762 747.588 676.662C744.988 675.962 742.588 679.762 745.888 680.562Z" fill="#E5ABF2"/>
<path d="M750.488 690.862C754.588 691.862 759.788 693.962 763.988 692.962C768.288 691.962 770.188 687.062 772.388 683.762C772.688 683.362 768.188 683.462 767.288 684.662C765.788 686.962 763.988 690.762 761.788 692.362C762.988 691.962 764.088 691.562 765.288 691.162C763.788 691.362 761.788 690.562 760.388 690.262C758.488 689.862 756.588 689.362 754.788 688.962C753.688 688.662 752.088 689.162 751.188 689.662C750.688 689.862 749.288 690.662 750.488 690.862Z" fill="#E5ABF2"/>
<path d="M679.888 464.662C680.388 467.362 680.988 470.162 682.988 472.062C683.588 472.662 684.388 473.162 685.188 473.162C685.888 473.162 686.588 472.962 687.188 472.562C688.788 471.562 689.788 469.962 690.388 468.262C690.988 466.562 691.188 464.662 691.388 462.862C691.588 461.062 691.688 459.162 692.288 457.462C692.188 457.662 690.788 457.962 690.488 457.962C689.888 458.162 689.288 458.262 688.588 458.362C687.288 458.562 686.088 458.662 684.788 458.662C683.488 458.662 682.188 458.562 680.988 458.262C680.588 458.162 679.888 457.862 679.588 458.262C679.188 458.662 679.388 459.562 679.388 459.962C679.388 461.662 679.688 463.162 679.888 464.662Z" fill="#5D7183"/>
<path d="M1068.79 727.762L437.988 693.362C422.788 692.562 411.088 679.462 411.888 664.262L414.388 618.562C415.188 603.362 428.288 591.662 443.488 592.462L1074.29 626.862C1089.49 627.662 1101.19 640.762 1100.39 655.962L1097.89 701.662C1097.09 716.862 1083.99 728.562 1068.79 727.762Z" fill="#F0D3F7" stroke="#E458EC" stroke-width="3" stroke-miterlimit="10"/>
<path d="M477.788 637.862L471.588 637.562L471.888 632.762C472.288 626.162 467.188 620.562 460.588 620.162C453.988 619.762 448.388 624.862 447.988 631.462L447.688 636.262L441.488 635.962L441.788 631.162C442.288 621.162 450.888 613.462 460.988 613.962C470.988 614.462 478.688 623.062 478.188 633.162L477.788 637.862Z" fill="#04D498"/>
<path d="M461.488 672.162L453.788 671.762C444.588 671.262 437.488 663.362 437.988 654.062L438.888 637.362C438.988 636.362 439.788 635.662 440.688 635.762L478.388 637.862C479.388 637.962 480.088 638.762 479.988 639.662L479.088 656.362C478.688 665.562 470.788 672.662 461.488 672.162Z" fill="#04D498"/>
<path d="M456.388 661.262L447.288 651.662L451.588 647.962L456.788 653.462L468.588 643.662L472.488 647.762L456.388 661.262Z" fill="#F0D3F7"/>
<path d="M518.107 663.8L520.446 620.883L525.747 620.266L524.928 635.287C525.927 634.964 526.978 634.738 528.08 634.609C529.222 634.445 530.339 634.392 531.43 634.452C533.764 634.579 535.685 635.024 537.191 635.785C538.7 636.509 539.873 637.498 540.711 638.752C541.589 639.971 542.171 641.418 542.457 643.095C542.743 644.772 542.832 646.608 542.723 648.604L541.825 665.093L536.573 664.807L537.41 649.447C537.508 647.64 537.461 646.089 537.267 644.795C537.111 643.502 536.772 642.446 536.25 641.624C535.729 640.803 535.006 640.197 534.084 639.807C533.163 639.379 532.006 639.128 530.613 639.052C530.049 639.021 529.463 639.027 528.857 639.069C528.25 639.112 527.662 639.174 527.091 639.256C526.559 639.303 526.065 639.37 525.607 639.459C525.187 639.549 524.88 639.627 524.688 639.692L523.359 664.087L518.107 663.8ZM556.881 636.462L568.005 637.068L567.765 641.472L556.641 640.866L555.902 654.419C555.822 655.887 555.869 657.117 556.041 658.108C556.216 659.062 556.513 659.833 556.934 660.422C557.357 660.974 557.902 661.381 558.567 661.644C559.232 661.907 560.017 662.063 560.92 662.112C562.501 662.198 563.772 662.098 564.731 661.81C565.731 661.487 566.423 661.26 566.807 661.13L567.587 665.534C567.046 665.769 566.106 666.038 564.768 666.343C563.427 666.685 561.91 666.81 560.216 666.718C558.221 666.609 556.578 666.274 555.287 665.713C554.036 665.116 553.042 664.288 552.307 663.229C551.572 662.169 551.075 660.896 550.816 659.409C550.597 657.887 550.541 656.147 550.647 654.189L552.075 627.987L557.376 627.37L556.881 636.462ZM579.601 637.7L590.726 638.306L590.486 642.71L579.361 642.104L578.623 655.657C578.543 657.125 578.589 658.355 578.761 659.346C578.936 660.3 579.234 661.071 579.655 661.66C580.078 662.212 580.622 662.619 581.287 662.882C581.953 663.145 582.737 663.301 583.641 663.35C585.222 663.436 586.492 663.336 587.452 663.048C588.451 662.725 589.143 662.498 589.528 662.368L590.307 666.772C589.766 667.007 588.826 667.276 587.488 667.581C586.148 667.923 584.631 668.048 582.936 667.956C580.941 667.847 579.298 667.512 578.007 666.951C576.756 666.354 575.763 665.526 575.027 664.467C574.292 663.407 573.795 662.134 573.536 660.647C573.317 659.125 573.261 657.385 573.368 655.427L574.795 629.225L580.096 628.608L579.601 637.7ZM616.991 654.519C617.178 651.094 616.474 648.412 614.881 646.475C613.287 644.538 611.078 643.493 608.255 643.339C606.674 643.253 605.428 643.242 604.519 643.305C603.647 643.371 602.943 643.465 602.408 643.587L601.399 662.109C602.01 662.671 602.904 663.229 604.083 663.784C605.261 664.339 606.565 664.656 607.995 664.734C609.501 664.816 610.796 664.622 611.878 664.152C613.001 663.647 613.927 662.942 614.656 662.038C615.387 661.096 615.938 659.994 616.308 658.73C616.681 657.429 616.909 656.025 616.991 654.519ZM622.469 654.818C622.348 657.039 621.935 659.074 621.23 660.924C620.562 662.775 619.627 664.348 618.424 665.642C617.221 666.936 615.77 667.914 614.073 668.576C612.413 669.241 610.529 669.516 608.421 669.401C606.727 669.309 605.233 669.001 603.94 668.477C602.685 667.956 601.748 667.471 601.131 667.022L600.491 678.767L595.239 678.481L597.359 639.574C598.618 639.34 600.179 639.104 602.042 638.866C603.945 638.592 606.12 638.522 608.567 638.655C610.826 638.778 612.839 639.246 614.607 640.06C616.375 640.874 617.863 641.975 619.072 643.362C620.28 644.749 621.17 646.421 621.743 648.378C622.356 650.3 622.598 652.446 622.469 654.818ZM636.101 666.435C638.247 666.552 639.843 666.356 640.89 665.847C641.975 665.339 642.551 664.464 642.619 663.222C642.689 661.942 642.236 660.898 641.261 660.09C640.285 659.281 638.656 658.343 636.373 657.275C635.268 656.761 634.201 656.25 633.172 655.741C632.182 655.196 631.328 654.583 630.61 653.902C629.892 653.221 629.332 652.417 628.929 651.488C628.527 650.56 628.361 649.437 628.433 648.12C628.575 645.522 629.646 643.523 631.648 642.122C633.653 640.683 636.311 640.053 639.624 640.234C640.452 640.279 641.277 640.381 642.099 640.539C642.923 640.659 643.689 640.814 644.396 641.004C645.105 641.156 645.719 641.321 646.238 641.501C646.795 641.682 647.22 641.837 647.515 641.967L646.309 646.432C645.761 646.1 644.893 645.751 643.704 645.384C642.518 644.979 641.078 644.731 639.384 644.639C637.916 644.559 636.619 644.79 635.495 645.333C634.372 645.838 633.777 646.712 633.709 647.954C633.675 648.594 633.757 649.165 633.956 649.667C634.193 650.171 634.545 650.643 635.011 651.084C635.518 651.489 636.139 651.881 636.873 652.261C637.607 652.641 638.491 653.048 639.525 653.482C640.889 654.085 642.103 654.679 643.166 655.266C644.231 655.815 645.122 656.449 645.838 657.167C646.591 657.888 647.148 658.749 647.509 659.75C647.872 660.714 648.016 661.893 647.94 663.285C647.792 665.996 646.664 667.992 644.555 669.275C642.484 670.559 639.585 671.099 635.858 670.896C633.26 670.755 631.239 670.418 629.796 669.886C628.35 669.392 627.37 669.018 626.855 668.763L628.061 664.298C628.651 664.557 629.593 664.948 630.886 665.471C632.179 665.995 633.917 666.316 636.101 666.435ZM660.641 668.509C660.586 669.525 660.199 670.391 659.48 671.107C658.762 671.823 657.819 672.149 656.652 672.086C655.485 672.022 654.583 671.596 653.946 670.806C653.31 670.016 653.019 669.113 653.074 668.096C653.13 667.08 653.517 666.214 654.235 665.498C654.954 664.782 655.897 664.455 657.064 664.519C658.231 664.583 659.133 665.009 659.77 665.799C660.406 666.589 660.697 667.492 660.641 668.509ZM661.869 645.977C661.814 646.994 661.427 647.86 660.708 648.576C659.989 649.292 659.046 649.618 657.879 649.554C656.712 649.491 655.811 649.064 655.174 648.274C654.537 647.484 654.247 646.581 654.302 645.565C654.358 644.548 654.745 643.682 655.463 642.966C656.182 642.25 657.125 641.924 658.292 641.987C659.459 642.051 660.361 642.478 660.997 643.268C661.634 644.057 661.924 644.961 661.869 645.977ZM667.083 682.396L661.718 682.104L683.84 628.484L689.092 628.77L667.083 682.396ZM688.755 683.577L683.391 683.285L705.513 629.665L710.764 629.951L688.755 683.577ZM724.231 675.712C721.859 675.582 719.79 675.092 718.024 674.241C716.296 673.391 714.847 672.255 713.679 670.832C712.548 669.411 711.732 667.762 711.23 665.885C710.73 663.969 710.542 661.882 710.665 659.624C710.788 657.365 711.221 655.312 711.963 653.464C712.743 651.619 713.773 650.051 715.051 648.762C716.332 647.434 717.859 646.441 719.631 645.783C721.444 645.089 723.423 644.8 725.569 644.917C726.886 644.989 728.198 645.174 729.503 645.471C730.809 645.769 732.05 646.195 733.228 646.75L731.799 651.147C731.029 650.727 730.123 650.376 729.082 650.093C728.077 649.811 726.992 649.639 725.825 649.575C722.888 649.415 720.579 650.214 718.898 651.973C717.254 653.734 716.335 656.383 716.142 659.922C716.056 661.503 716.147 662.962 716.414 664.298C716.718 665.636 717.221 666.796 717.923 667.778C718.662 668.763 719.62 669.551 720.796 670.144C721.974 670.699 723.429 671.024 725.161 671.118C726.554 671.194 727.822 671.131 728.966 670.929C730.109 670.727 731.01 670.493 731.666 670.226L732.16 674.671C731.849 674.843 731.405 675.007 730.83 675.165C730.258 675.285 729.61 675.382 728.889 675.456C728.165 675.567 727.388 675.638 726.555 675.668C725.758 675.738 724.984 675.753 724.231 675.712ZM761.18 676.196C759.959 676.431 758.341 676.664 756.328 676.894C754.351 677.126 752.065 677.172 749.467 677.03C747.208 676.907 745.324 676.483 743.816 675.759C742.309 674.998 741.118 673.989 740.243 672.733C739.367 671.477 738.766 670.028 738.441 668.387C738.117 666.708 738.009 664.871 738.118 662.875L739.016 646.386L744.268 646.672L743.431 662.032C743.236 665.608 743.661 668.199 744.707 669.804C745.752 671.409 747.611 672.285 750.284 672.43C750.849 672.461 751.433 672.474 752.038 672.469C752.642 672.464 753.209 672.457 753.738 672.449C754.269 672.402 754.743 672.371 755.159 672.356C755.615 672.305 755.939 672.248 756.131 672.182L757.482 647.392L762.734 647.678L761.18 676.196ZM776.694 648.439L787.819 649.045L787.579 653.45L776.454 652.844L775.716 666.396C775.636 667.865 775.682 669.094 775.854 670.085C776.029 671.039 776.327 671.81 776.748 672.4C777.171 672.951 777.715 673.359 778.38 673.621C779.046 673.884 779.83 674.04 780.734 674.089C782.315 674.176 783.585 674.075 784.545 673.787C785.544 673.464 786.236 673.238 786.621 673.108L787.4 677.511C786.859 677.746 785.919 678.016 784.581 678.32C783.241 678.663 781.724 678.788 780.03 678.695C778.034 678.587 776.391 678.252 775.1 677.69C773.849 677.094 772.856 676.265 772.121 675.206C771.385 674.146 770.888 672.873 770.63 671.387C770.41 669.864 770.354 668.124 770.461 666.167L771.889 639.965L777.189 639.347L776.694 648.439ZM799.414 649.677L810.539 650.283L810.299 654.688L799.174 654.082L798.436 667.634C798.356 669.103 798.402 670.332 798.575 671.323C798.749 672.277 799.047 673.048 799.468 673.638C799.891 674.189 800.435 674.597 801.101 674.859C801.766 675.122 802.55 675.278 803.454 675.327C805.035 675.414 806.305 675.313 807.265 675.025C808.264 674.702 808.956 674.476 809.341 674.346L810.121 678.749C809.579 678.984 808.639 679.254 807.301 679.558C805.961 679.901 804.444 680.026 802.75 679.933C800.755 679.825 799.111 679.49 797.821 678.928C796.569 678.332 795.576 677.503 794.841 676.444C794.106 675.384 793.609 674.111 793.35 672.625C793.131 671.102 793.074 669.362 793.181 667.405L794.609 641.203L799.91 640.585L799.414 649.677ZM822.606 677.334C822.551 678.35 822.164 679.217 821.445 679.933C820.726 680.649 819.784 680.975 818.617 680.911C817.45 680.848 816.548 680.421 815.911 679.631C815.274 678.841 814.984 677.938 815.039 676.922C815.095 675.905 815.482 675.039 816.2 674.323C816.919 673.607 817.862 673.281 819.029 673.344C820.196 673.408 821.098 673.835 821.734 674.624C822.371 675.414 822.662 676.317 822.606 677.334ZM838.904 681.847C835.67 681.595 833.412 680.773 832.128 679.382C830.845 677.99 830.279 675.902 830.431 673.116L832.351 637.879L837.652 637.261L835.729 672.555C835.681 673.421 835.718 674.14 835.838 674.713C835.957 675.286 836.178 675.751 836.498 676.108C836.818 676.466 837.256 676.754 837.81 676.973C838.367 677.154 839.056 677.324 839.878 677.482L838.904 681.847ZM841.823 686.933C842.227 687.144 842.745 687.342 843.377 687.528C844.044 687.753 844.698 687.883 845.338 687.918C847.408 688.03 849.053 687.648 850.271 686.771C851.487 685.931 852.622 684.501 853.676 682.482C851.551 677.835 849.59 672.933 847.794 667.775C846.038 662.582 844.624 657.351 843.552 652.082L849.199 652.39C849.521 654.106 849.911 655.959 850.369 657.947C850.865 659.938 851.414 661.988 852.016 664.097C852.619 666.207 853.278 668.319 853.993 670.435C854.708 672.551 855.466 674.593 856.264 676.563C857.91 672.688 859.366 668.84 860.631 665.02C861.897 661.2 863.112 657.264 864.277 653.211L869.698 653.507C868.041 658.967 866.245 664.212 864.309 669.242C862.376 674.234 860.328 678.898 858.166 683.236C857.321 684.889 856.451 686.295 855.558 687.455C854.699 688.654 853.759 689.623 852.737 690.36C851.715 691.097 850.573 691.62 849.31 691.929C848.085 692.24 846.701 692.353 845.157 692.269C844.743 692.246 844.312 692.185 843.865 692.085C843.415 692.023 842.967 691.923 842.522 691.785C842.112 691.688 841.721 691.572 841.351 691.438C841.018 691.307 840.779 691.2 840.632 691.116L841.823 686.933ZM872.558 693.592L867.194 693.3L889.315 639.68L894.567 639.966L872.558 693.592ZM909.159 641.158C910.703 641.242 912.014 641.427 913.094 641.712C914.211 641.999 914.99 642.249 915.432 642.462L914.226 646.928C913.786 646.677 913.157 646.435 912.339 646.202C911.523 645.931 910.513 645.762 909.308 645.697C906.861 645.564 905.112 646.148 904.059 647.45C903.008 648.714 902.422 650.476 902.298 652.734L902.16 655.276L913.454 655.891L913.214 660.296L901.92 659.68L900.56 684.64L895.308 684.354L897.053 652.335C897.258 648.571 898.338 645.722 900.294 643.79C902.251 641.82 905.206 640.942 909.159 641.158ZM919.518 654.522C921.708 653.811 923.855 652.871 925.958 651.701C928.063 650.495 930.015 648.958 931.816 647.093L935.543 647.296L933.411 686.43L928.159 686.144L929.895 654.295C929.42 654.684 928.832 655.086 928.13 655.501C927.465 655.918 926.726 656.312 925.913 656.683C925.138 657.056 924.307 657.407 923.42 657.737C922.572 658.068 921.745 658.344 920.94 658.564L919.518 654.522ZM980.406 649.741C979.169 650.957 977.774 652.316 976.219 653.817C974.667 655.281 973.036 656.796 971.327 658.365C969.658 659.897 967.989 661.411 966.322 662.906C964.655 664.401 963.088 665.788 961.621 667.068C963.178 668.285 964.815 669.772 966.532 671.527C968.249 673.281 969.922 675.147 971.551 677.124C973.18 679.101 974.694 681.109 976.093 683.148C977.53 685.19 978.709 687.123 979.629 688.948L973.191 688.597C972.158 686.767 970.956 684.926 969.584 683.077C968.214 681.19 966.745 679.392 965.177 677.683C963.649 675.938 962.075 674.323 960.457 672.838C958.876 671.355 957.322 670.081 955.794 669.016L954.782 687.594L949.304 687.296L951.437 648.162L956.914 648.461L955.973 665.741C957.358 664.57 958.883 663.256 960.549 661.799C962.216 660.304 963.865 658.808 965.494 657.311C967.124 655.814 968.655 654.387 970.089 653.03C971.561 651.638 972.798 650.421 973.799 649.381L980.406 649.741ZM1001.84 687.213C1001.37 687.49 1000.46 687.837 999.117 688.254C997.813 688.636 996.294 688.78 994.563 688.686C992.793 688.589 991.133 688.216 989.583 687.565C988.07 686.916 986.762 685.976 985.659 684.746C984.557 683.478 983.716 681.94 983.135 680.134C982.554 678.328 982.33 676.201 982.463 673.754C982.58 671.608 983.007 669.668 983.743 667.933C984.481 666.161 985.488 664.668 986.762 663.454C988.076 662.204 989.638 661.269 991.446 660.65C993.256 659.994 995.272 659.726 997.493 659.847C999.94 659.98 1002.06 660.285 1003.84 660.76C1005.67 661.199 1007.2 661.603 1008.42 661.972L1006.99 688.174C1006.75 692.691 1005.4 695.903 1002.96 697.809C1000.51 699.715 996.919 700.538 992.175 700.28C990.33 700.179 988.588 699.933 986.948 699.542C985.346 699.152 983.953 698.718 982.771 698.238L983.981 693.716C985.012 694.188 986.273 694.615 987.762 694.999C989.287 695.421 990.878 695.678 992.534 695.768C995.659 695.939 997.933 695.439 999.356 694.271C1000.82 693.105 1001.62 691.166 1001.77 688.455L1001.84 687.213ZM1002.97 665.413C1002.45 665.233 1001.74 665.063 1000.84 664.9C999.985 664.703 998.803 664.563 997.297 664.481C994.474 664.327 992.24 665.13 990.596 666.891C988.99 668.653 988.104 671.059 987.937 674.109C987.845 675.803 987.973 677.264 988.322 678.491C988.708 679.72 989.237 680.75 989.909 681.579C990.619 682.411 991.434 683.04 992.355 683.468C993.313 683.898 994.301 684.141 995.317 684.196C996.71 684.272 998 684.153 999.188 683.84C1000.38 683.49 1001.33 683.07 1002.03 682.58L1002.97 665.413ZM1024.37 687.535C1027.72 687.717 1030.14 687.189 1031.65 685.949C1033.19 684.711 1034.02 682.982 1034.14 680.761C1034.22 679.33 1033.98 678.109 1033.43 677.097C1032.88 676.086 1032.13 675.271 1031.19 674.653C1030.24 673.997 1029.11 673.521 1027.81 673.223C1026.54 672.89 1025.23 672.686 1023.88 672.612L1022.52 672.538L1022.76 668.247L1024.62 668.348C1025.56 668.4 1026.53 668.358 1027.52 668.223C1028.54 668.09 1029.48 667.801 1030.34 667.357C1031.19 666.913 1031.91 666.291 1032.48 665.491C1033.05 664.654 1033.37 663.596 1033.44 662.316C1033.5 661.262 1033.36 660.348 1033.03 659.574C1032.69 658.801 1032.22 658.152 1031.6 657.628C1031.03 657.106 1030.33 656.728 1029.51 656.494C1028.74 656.226 1027.89 656.066 1026.99 656.017C1025.18 655.919 1023.63 656.098 1022.32 656.555C1021.05 657.015 1019.96 657.503 1019.07 658.021L1017.25 653.901C1017.72 653.624 1018.3 653.335 1019 653.033C1019.73 652.695 1020.54 652.4 1021.42 652.146C1022.31 651.892 1023.24 651.697 1024.23 651.562C1025.26 651.392 1026.32 651.336 1027.41 651.396C1029.48 651.509 1031.26 651.87 1032.73 652.479C1034.21 653.05 1035.42 653.833 1036.34 654.828C1037.27 655.785 1037.95 656.916 1038.37 658.223C1038.79 659.492 1038.96 660.861 1038.88 662.329C1038.77 664.362 1038.09 666.081 1036.84 667.485C1035.6 668.852 1034.13 669.867 1032.43 670.53C1033.43 670.886 1034.39 671.372 1035.3 671.988C1036.21 672.604 1036.98 673.364 1037.61 674.267C1038.28 675.171 1038.79 676.2 1039.14 677.352C1039.53 678.506 1039.69 679.779 1039.61 681.172C1039.52 682.866 1039.13 684.431 1038.45 685.866C1037.8 687.266 1036.83 688.459 1035.53 689.446C1034.27 690.434 1032.7 691.179 1030.82 691.681C1028.95 692.183 1026.75 692.365 1024.22 692.228C1023.25 692.174 1022.23 692.044 1021.19 691.836C1020.18 691.63 1019.23 691.389 1018.34 691.114C1017.45 690.839 1016.67 690.57 1016 690.307C1015.34 690.044 1014.86 689.83 1014.57 689.663L1015.83 685.144C1016.46 685.48 1017.49 685.933 1018.93 686.502C1020.41 687.074 1022.22 687.418 1024.37 687.535ZM1071.93 689.22L1071.67 693.964L1048.13 692.681L1050.26 653.547L1055.74 653.845L1053.86 688.236L1071.93 689.22Z" fill="#302F4D"/>
<path d="M500.551 610.022L499.753 609.979L495.808 682.37L496.607 682.414L500.551 610.022Z" fill="#ADADAD"/>
<path d="M750.888 507.962C773.988 531.762 793.788 558.962 806.088 589.862C816.988 617.262 821.588 646.662 821.288 676.062C821.188 684.562 820.688 693.062 819.888 701.462C819.488 705.962 819.188 710.662 817.888 714.962C816.988 717.762 815.788 720.462 813.288 722.162C809.988 724.462 805.388 724.162 803.588 720.162C802.588 717.862 797.488 719.362 798.388 721.562C800.888 727.162 807.488 728.862 813.088 726.662C820.388 723.862 823.188 716.562 824.188 709.362C826.588 692.062 827.088 674.262 825.988 656.862C823.988 622.462 814.388 589.262 797.088 559.362C785.688 539.662 771.388 521.862 755.588 505.562C753.988 504.062 749.088 506.162 750.888 507.962Z" fill="#5D7183"/>
<path d="M635.388 509.262C620.488 519.962 600.488 506.662 588.988 496.562C577.188 486.062 567.788 472.962 560.988 458.762C554.288 444.862 549.888 430.062 547.188 414.862C544.388 398.762 543.888 382.362 541.688 366.262C539.388 348.862 534.988 331.662 524.388 317.262C523.188 315.562 518.188 317.462 519.588 319.462C541.088 348.962 535.988 387.962 542.988 421.962C549.588 453.962 565.088 485.662 591.988 505.162C605.088 514.662 623.888 521.762 638.488 511.262C641.588 509.162 637.288 507.862 635.388 509.262Z" fill="#5D7183"/>
</svg>
